<?xml version="1.0" encoding="utf-8"?>
<!-- Generator: Adobe Illustrator 23.1.0, SVG Export Plug-In . SVG Version: 6.00 Build 0)  -->
<svg version="1.1" id="Livello_1" focusable="false"
	 xmlns="http://www.w3.org/2000/svg" xmlns:xlink="http://www.w3.org/1999/xlink" x="0px" y="0px" viewBox="0 0 705.2 512"
	 style="enable-background:new 0 0 705.2 512;" xml:space="preserve">
<g>
	<path d="M657.2,32H256h-32H48C21.5,32,0,53.5,0,80v134.5v32V432c0,26.5,21.5,48,48,48h609.2c26.5,0,48-21.5,48-48V246.5v-32V80
		C705.2,53.5,683.7,32,657.2,32z M32,80c0-8.8,7.2-16,16-16h176v92.8c-33.5-51.1-56.8-70.3-93.5-70.3c-41.1,0-74.5,35.9-74.5,80
		c0,18.1,5.8,34.6,15.3,48H32V80z M221.9,214.5h-91.5c-23.4,0-42.5-21.5-42.5-48c0.1-26.5,19.2-48,42.6-48s39.8,9.1,89.3,92.4
		L221.9,214.5z M32,432V246.5h169.4l-79,79c-3.1,3.1-3.1,8.2,0,11.3l11.3,11.3c3.1,3.1,8.2,3.1,11.3,0l79-79V448H48
		C39.2,448,32,440.8,32,432z M673.2,432c0,8.8-7.2,16-16,16H256V269.1l79,79c3.1,3.1,8.2,3.1,11.3,0l11.3-11.3
		c3.1-3.1,3.1-8.2,0-11.3l-79-79h394.6V432z M258,214.5l2.2-3.6c49.5-83.3,66-92.4,89.3-92.4c23.4,0,42.5,21.5,42.5,48
		s-19.1,48-42.5,48H258z M408.7,214.5c9.5-13.4,15.3-29.9,15.3-48c0-44.1-33.4-80-74.5-80c-36.7,0-60,19.2-93.5,70.3V64h401.2
		c8.8,0,16,7.2,16,16v134.5H408.7z"/>
	<path d="M436,312h170c6.6,0,12-5.4,12-12v-8c0-6.6-5.4-12-12-12H436c-6.6,0-12,5.4-12,12v8C424,306.6,429.4,312,436,312z"/>
	<path d="M436,364h170c6.6,0,12-5.4,12-12v-8c0-6.6-5.4-12-12-12H436c-6.6,0-12,5.4-12,12v8C424,358.6,429.4,364,436,364z"/>
	<path d="M436,416h170c6.6,0,12-5.4,12-12v-8c0-6.6-5.4-12-12-12H436c-6.6,0-12,5.4-12,12v8C424,410.6,429.4,416,436,416z"/>
</g>
</svg>
