<?xml version="1.0" encoding="utf-8"?>
<!-- Generator: Adobe Illustrator 25.1.0, SVG Export Plug-In . SVG Version: 6.00 Build 0)  -->
<svg version="1.1" id="Layer_1" xmlns="http://www.w3.org/2000/svg" xmlns:xlink="http://www.w3.org/1999/xlink" x="0px" y="0px"
	 viewBox="0 0 350 220" style="enable-background:new 0 0 350 220;" xml:space="preserve">
<style type="text/css">
	.st0{fill:#FFFFFF;}
	.st1{display:none;}
	.st2{display:inline;}
	.st3{fill:#F4F4F4;}
	.st4{fill:#E4E4E4;}
	.st5{fill:#63A554;}
	.st6{fill:url(#SVGID_1_);}
	.st7{fill:#CBCBCD;}
	.st8{fill:#009CDE;}
	.st9{fill:#003087;}
	.st10{fill:#012169;}
</style>
<rect class="st0" width="350" height="220"/>
<g id="Layer_1_1_" class="st1">
	<g class="st2">
		<rect x="5" y="5" class="st3" width="340" height="210"/>
		<path class="st4" d="M340,10v200H10V10H340 M350,0H0v220h350V0L350,0z"/>
	</g>
	<g id="Слой_2" class="st2">
		<g id="Контент">
			<path class="st5" d="M192,76.8l-18.9,40.9h-1.9V67.9h-26.8v84.2h22.7c6,0,11.4-3.6,13.9-9l18.9-40.9h1.9v49.9h26.8V67.9h-22.7
				C199.9,67.9,194.5,71.5,192,76.8"/>
			<path class="st5" d="M91.4,79l-11.2,38.7h-1.9L67.2,79c-1.9-6.6-7.9-11.1-14.7-11.1H25.7v84.2h26.8v-49.8h1.9l15.3,49.8h19.1
				l15.3-49.8h1.9v49.8h26.8V67.9H106C99.3,67.9,93.3,72.4,91.4,79"/>
			<path class="st5" d="M240.1,106.2v45.9h26.7v-26.8h28.8c12.2,0,23-7.7,27.1-19.1C322.7,106.2,240.1,106.2,240.1,106.2z"/>
			
				<linearGradient id="SVGID_1_" gradientUnits="userSpaceOnUse" x1="236.2" y1="-543.1" x2="324.3" y2="-543.1" gradientTransform="matrix(1 0 0 -1 0 -458)">
				<stop  offset="1.000000e-02" style="stop-color:#5EA2DD"/>
				<stop  offset="0.36" style="stop-color:#5899D5"/>
				<stop  offset="0.94" style="stop-color:#4980BF"/>
				<stop  offset="1" style="stop-color:#477DBD"/>
			</linearGradient>
			<path class="st6" d="M295.6,67.9h-59.4c3.7,20,21.1,34.4,41.4,34.4h46.1c0.4-1.9,0.6-3.8,0.6-5.7
				C324.3,80.7,311.5,67.9,295.6,67.9"/>
		</g>
	</g>
</g>
<g id="Layer_1_copy">
	<g>
		<path class="st7" d="M342,8v204H8V8H342 M350,0H0v220h350V0L350,0z"/>
	</g>
	<g>
		<g>
			<path class="st8" d="M205.1,149.2h-13.4c-0.9,0-1.7,0.7-1.9,1.6l-5.4,34.4c-0.1,0.7,0.4,1.3,1.1,1.3h6.9c0.7,0,1.2-0.5,1.3-1.1
				l1.5-9.8c0.1-0.9,0.9-1.6,1.9-1.6h4.2c8.8,0,14-4.3,15.3-12.8c0.6-3.7,0-6.6-1.7-8.7C213,150.4,209.6,149.2,205.1,149.2z
				 M206.7,161.8c-0.8,4.8-4.4,4.8-8,4.8h-2l1.4-9c0.1-0.5,0.6-0.9,1.1-0.9h0.9c2.4,0,4.7,0,5.9,1.4
				C206.8,158.9,207,160.1,206.7,161.8z"/>
			<path class="st9" d="M109.4,149.2H96c-0.9,0-1.7,0.7-1.9,1.6l-5.4,34.4c-0.1,0.7,0.4,1.3,1.1,1.3h6.4c0.9,0,1.7-0.7,1.9-1.6
				l1.5-9.3c0.1-0.9,0.9-1.6,1.9-1.6h4.2c8.8,0,14-4.3,15.3-12.8c0.6-3.7,0-6.6-1.7-8.7C117.3,150.4,113.9,149.2,109.4,149.2z
				 M111,161.8c-0.8,4.8-4.4,4.8-8,4.8h-2l1.4-9c0.1-0.5,0.6-0.9,1.1-0.9h0.9c2.4,0,4.7,0,5.9,1.4C111,158.9,111.2,160.1,111,161.8z
				"/>
			<path class="st9" d="M149.5,161.7h-6.4c-0.5,0-1,0.4-1.1,0.9l-0.3,1.8l-0.4-0.7c-1.4-2-4.5-2.7-7.6-2.7
				c-7.1,0-13.2,5.4-14.4,12.9c-0.6,3.8,0.3,7.4,2.4,9.9c1.9,2.3,4.8,3.3,8.1,3.3c5.7,0,8.9-3.7,8.9-3.7l-0.3,1.8
				c-0.1,0.7,0.4,1.3,1.1,1.3h5.8c0.9,0,1.7-0.7,1.9-1.6l3.5-22C150.7,162.3,150.3,161.7,149.5,161.7z M140.6,174.2
				c-0.6,3.7-3.5,6.1-7.2,6.1c-1.9,0-3.4-0.6-4.3-1.7s-1.3-2.7-1-4.5c0.6-3.6,3.5-6.2,7.2-6.2c1.8,0,3.3,0.6,4.3,1.8
				C140.5,170.8,140.9,172.4,140.6,174.2z"/>
			<path class="st8" d="M245.3,161.7h-6.4c-0.5,0-1,0.4-1.1,0.9l-0.3,1.8l-0.4-0.7c-1.4-2-4.5-2.7-7.6-2.7
				c-7.1,0-13.2,5.4-14.4,12.9c-0.6,3.8,0.3,7.4,2.4,9.9c1.9,2.3,4.8,3.3,8.1,3.3c5.7,0,8.9-3.7,8.9-3.7l-0.3,1.8
				c-0.1,0.7,0.4,1.3,1.1,1.3h5.8c0.9,0,1.7-0.7,1.9-1.6l3.5-22C246.5,162.3,246,161.7,245.3,161.7z M236.3,174.2
				c-0.6,3.7-3.5,6.1-7.2,6.1c-1.9,0-3.4-0.6-4.3-1.7c-1-1.1-1.3-2.7-1-4.5c0.6-3.6,3.5-6.2,7.2-6.2c1.8,0,3.3,0.6,4.3,1.8
				C236.2,170.8,236.6,172.4,236.3,174.2z"/>
			<path class="st9" d="M183.8,161.7h-6.5c-0.6,0-1.2,0.3-1.5,0.8l-8.9,13.1l-3.8-12.6c-0.2-0.8-1-1.3-1.8-1.3H155
				c-0.8,0-1.3,0.8-1.1,1.5L161,184l-6.7,9.5c-0.5,0.8,0,1.8,0.9,1.8h6.5c0.6,0,1.2-0.3,1.5-0.8l21.5-31
				C185.2,162.7,184.7,161.7,183.8,161.7z"/>
			<path class="st8" d="M252.9,150.2l-5.5,35c-0.1,0.7,0.4,1.3,1.1,1.3h5.5c0.9,0,1.7-0.7,1.9-1.6l5.4-34.4c0.1-0.7-0.4-1.3-1.1-1.3
				H254C253.4,149.2,253,149.6,252.9,150.2z"/>
		</g>
		<g>
			<path class="st8" d="M217.7,53.3c1.4-8.7,0-14.6-4.7-20c-5.2-5.9-14.5-8.4-26.5-8.4h-34.8c-2.4,0-4.6,1.8-4.9,4.2L132.3,121
				c-0.3,1.8,1.1,3.4,3,3.4h21.5l-1.5,9.4c-0.3,1.6,1,3,2.6,3H176c2.1,0,4-1.5,4.3-3.7l0.2-0.9l3.4-21.6l0.2-1.2
				c0.4-2.1,2.2-3.7,4.3-3.7h2.7c17.5,0,31.2-7.1,35.3-27.7c1.7-8.6,0.8-15.8-3.6-20.9C221.3,55.6,219.6,54.4,217.7,53.3L217.7,53.3
				"/>
			<path class="st10" d="M217.7,53.3c1.4-8.7,0-14.6-4.7-20c-5.2-5.9-14.5-8.4-26.5-8.4h-34.8c-2.4,0-4.6,1.8-4.9,4.2L132.3,121
				c-0.3,1.8,1.1,3.4,3,3.4h21.5l5.4-34.2l-0.2,1.1c0.4-2.4,2.4-4.2,4.9-4.2H177c20,0,35.8-8.1,40.3-31.7
				C217.5,54.7,217.6,54,217.7,53.3"/>
			<path class="st9" d="M167.9,53.4c0.2-1.5,1.1-2.7,2.4-3.3c0.6-0.3,1.2-0.4,1.9-0.4h27.3c3.2,0,6.2,0.2,9,0.7
				c0.8,0.1,1.5,0.3,2.3,0.4c0.8,0.2,1.5,0.4,2.2,0.6c0.4,0.1,0.7,0.2,1,0.3c1.4,0.4,2.6,1,3.8,1.6c1.4-8.7,0-14.6-4.7-20
				c-5.2-5.9-14.5-8.4-26.5-8.4h-34.8c-2.4,0-4.6,1.8-4.9,4.2L132.3,121c-0.3,1.8,1.1,3.4,3,3.4h21.5l5.4-34.2L167.9,53.4z"/>
		</g>
	</g>
</g>
</svg>
