<?xml version="1.0" encoding="utf-8"?>
<!-- Generator: Adobe Illustrator 19.0.0, SVG Export Plug-In . SVG Version: 6.00 Build 0)  -->
<svg version="1.1" id="layer" xmlns="http://www.w3.org/2000/svg" xmlns:xlink="http://www.w3.org/1999/xlink" x="0px" y="0px"
	 viewBox="-153 -46 652 652" style="enable-background:new -153 -46 652 652;" xml:space="preserve">
<style type="text/css">
	.st0{fill:#C0D248;}
	.st1{fill:#FFFFFF;}
	.st2{fill:#E52A40;}
</style>
<path class="st0" d="M166.2,29.8H181h0.8c101.6,3.9,184.4,82.7,193.4,183.9c0,2.8,0.4,5.5,0.7,8.3v19.7c0,0.5,0,1,0,1.5
	c0,6.6-1,12.6-1.9,18.8c-3.1,20.9-9.4,41.1-18.9,59.9C320,392.4,247.2,436,168.5,433.7c-13.7-0.3-27.3-2-40.7-5.1
	C58.6,412.3,2.9,360.9-18.8,293.1c-4.6-14.5-7.6-29.4-8.7-44.5c0-3.2-0.5-6.6-0.7-9.6v-14.3c0-0.4,0-0.8,0-1.2
	c0-3.7,0.4-7.4,0.7-11.1c1.4-14.9,4.5-29.6,9.2-43.8C7.5,90.5,78,35.8,160.1,30.4C162.1,30.3,164.2,30.1,166.2,29.8L166.2,29.8z
	 M153,312.2l-1.1-0.7l-40.2-33.6l-55.9-46.6c-4-3.4-9.1-5.1-14.3-4.7c-8.5,0.6-15.8,6.4-18.3,14.6s0.3,17,7.1,22.3l71.1,59.2
	l59.2,49.5c7.7,6.5,19,6.5,26.6,0l34.9-29.1l60.7-50.6c11.8-9.9,23.7-19.7,35.5-29.6c7.3-6.4,9.2-17.1,4.4-25.6
	c-4.8-8.5-14.8-12.5-24.1-9.6c-3.4,1.3-6.6,3.3-9.2,5.8l-93.8,78l0,0c0,0-0.4,0.4-0.7,0c0,0,0-0.4,0-0.7v-0.9c0-12.2,0-24.3,0-36.4
	c0-18,0-36.1,0-54.1V114.1c0-0.5,0-1.1,0-1.6c0.2-3.2,0.1-6.3-0.5-9.5c-2.1-9.8-11-16.7-21-16.3c-10,0.4-18.3,7.9-19.7,17.8
	c-0.2,4.2-0.2,8.4,0,12.6c0,18.5,0,36.9,0,55.4s0,36.6,0,54.9s0,37.2,0,55.8c0,7,0,13.9,0,21L153,312.2z"/>
<path class="st1" d="M153.2,312.2v-8c0-7,0-14,0-21c0-18.6,0-37.2,0-55.8c0-18.3,0-36.6,0-54.9s0-36.9,0-55.4
	c-0.2-4.2-0.2-8.4,0-12.6c1.4-9.9,9.7-17.5,19.7-17.8c10-0.4,18.9,6.5,21,16.3c0.8,3.1,1.1,6.3,1.1,9.5c0,0.5,0,1.1,0,1.6v105.9
	c0,18,0,36.1,0,54.1c0,12.1,0,24.2,0,36.4v0.9c0,0,0,0.5,0,0.7c0,0,0.5,0,0.7,0l0,0l93.6-78.6c2.6-2.5,5.8-4.5,9.2-5.8
	c9.3-2.9,19.4,1.1,24.1,9.6c4.8,8.5,2.9,19.2-4.4,25.6c-11.8,9.9-23.6,19.7-35.5,29.6l-60.7,50.6L187,372.2c-7.7,6.5-19,6.5-26.6,0
	l-59.2-49.5l-71.1-59.2c-6.8-5.3-9.6-14.3-7-22.5c2.6-8.2,10-14,18.6-14.4c5.2-0.4,10.3,1.3,14.3,4.7l55.9,46.6l40.2,33.6
	L153.2,312.2z"/>
<path class="st2" d="M24.3,529.8c-1.4,0-2.9-0.6-4.3-1.1c-6.7-1.9-11.7-7.4-13.2-14.2c-1.7-6.4-1.2-13.3,1.5-19.3
	c2.8-6.8,9.4-11.3,16.8-11.4c5.1-0.6,10.2,0.8,14.3,3.9c5.8,4.5,8.8,11.6,8.2,18.9c-0.2,2.1-1.9,3.8-4.1,4H15.8
	c0.6,5.4,5,9.6,10.5,10c4.5,0.5,9.1-0.2,13.2-2.2c1.5-1,3.4-1,4.9,0c1.3,0.8,2.1,2.2,2.1,3.7c0,1.5-0.8,2.9-2.1,3.7
	c-3.3,2-6.9,3.3-10.7,3.8c0,0-0.5,0-0.6,0L24.3,529.8z M26.7,502.2H37c1,0,1.1,0,0.9-1.2c-1.1-5.2-5.6-8.9-10.9-8.9
	c-5.3,0-9.8,3.7-10.9,8.9c0,0.8,0,1,0.9,1L26.7,502.2z M85.8,529.8c-1-0.2-2-0.5-2.9-0.9c-4.8-1.6-8.3-5.8-8.9-10.8
	c-0.6-5,1.7-10,5.9-12.7c3.3-2.1,7.2-3.3,11.1-3.4c3.7,0,7.4,0,11.1,0c0.9,0,1.2,0,1.1-1.2c0-2.1-0.9-4.1-2.4-5.5
	c-1.5-1.4-3.6-2.2-5.6-2c-4.2-0.2-8.3,0.4-12.3,1.8c-1.5,0.6-3.2,0.4-4.4-0.6c-1.2-1-1.8-2.5-1.6-4c0.2-1.5,1.2-2.8,2.6-3.4
	c4.2-1.9,8.6-2.9,13.2-3.2c3.4-0.4,6.9,0.1,10.1,1.3c6.1,2.3,10.1,8.2,10.1,14.7c0,8.2,0,16.4,0,24.6c0.1,2.6-1.8,4.8-4.4,4.9
	c-2.5,0.4-4.9-1.4-5.3-3.9c0-0.1,0-0.3,0-0.4l-1.4,0.9c-2.6,1.9-5.7,3.1-8.9,3.6c0,0,0,0-0.4,0L85.8,529.8z M97.8,510.1h-2.8
	c-2.8,0-5.7,0.4-8.4,1.4c-1.7,0.6-2.8,2.2-2.8,3.9c-0.1,1.3,0.2,2.6,1.1,3.6c0.8,1,2,1.7,3.3,1.8c4.7,0.9,9.6-0.4,13.2-3.6
	c1.2-0.7,1.9-2.1,1.7-3.6c-0.1-0.8-0.1-1.5,0-2.3c0-1.1,0-1.3-1.3-1.2H97.8z M261.8,529.8c-1.6-0.5-3.4-0.7-4.9-1.3
	c-7.2-2.7-12.3-9.2-13.2-16.8c-1.2-5.9-0.3-12,2.5-17.2c3.3-6.2,9.6-10.3,16.6-10.7c5-0.6,10.2,0.3,14.6,2.8
	c5.8,3.4,9.7,9.4,10.3,16.2c0.9,5.3,0.1,10.8-2.3,15.7c-2.9,6.1-8.7,10.4-15.5,11.2c0,0-0.6,0-0.8,0L261.8,529.8z M278,506.2
	c0-1.4-0.2-2.8-0.5-4.1c-1.1-5-5.2-8.7-10.3-9.3c-5.6-1.1-11.1,2-13.2,7.3c-1.2,3-1.5,6.2-1,9.3c0.2,4.8,3.3,9,7.9,10.5
	c4.8,1.9,10.2,0.7,13.7-3.1C277.2,513.9,278.4,510.1,278,506.2z M350.5,529.8c-2.2-0.4-4.4-1-6.6-1.6c-1.5-0.5-3-1.2-4.5-1.9
	c-2.1-1-3-3.5-2-5.6c0.3-1.1,1.1-1.9,2.1-2.4c1-0.5,2.2-0.5,3.2-0.1c2.4,1,4.8,1.7,7.3,2.2c2.8,0.6,5.7,0.6,8.5,0
	c1.8-0.2,3.3-1.6,3.8-3.4c0.2-0.5,0.2-1.2-0.1-1.7c-0.3-0.5-0.7-0.9-1.3-1.1c-3-1.3-6.1-2.3-9.3-2.8c-2.7-0.6-5.3-1.6-7.8-2.8
	c-4.9-2.3-7.6-7.8-6.3-13.2c0.9-5.7,5.5-10.1,11.2-10.9c6.2-1.3,12.6-0.7,18.4,1.6c1.5,0.5,2.6,1.8,2.8,3.3c0.3,1.5-0.3,3.1-1.4,4.1
	c-1.2,1-2.8,1.3-4.3,0.8c-3.2-1-6.6-1.5-10-1.3c-1.8,0-3.5,0.4-5.1,1.2c-0.8,0.4-1.5,1.1-2,1.8c-0.4,0.6-0.5,1.4-0.4,2.2
	c0.2,0.7,0.6,1.4,1.3,1.8c1.8,1,3.7,1.7,5.7,2.1c3.4,0.7,6.8,1.7,10.1,3c3.5,1.3,6.1,4.2,7.3,7.7c1.2,3.5,0.7,7.4-1.3,10.5
	c-2.4,3.7-6.4,6.1-10.8,6.6c0,0-0.7,0-0.9,0H350.5z M155.9,529.8c-1-0.3-2-0.5-3-0.6c-2.7-0.6-5.4-1.5-7.9-2.8
	c-1.1-0.4-1.9-1.3-2.4-2.4c-0.4-1.1-0.4-2.3,0.1-3.4c0.4-1.1,1.2-2,2.3-2.4c1.1-0.4,2.3-0.4,3.3,0.1c2.3,1,4.6,1.7,7,2.1
	c2.8,0.6,5.6,0.6,8.4,0c1.6-0.2,2.9-1.3,3.6-2.7c0.4-0.7,0.5-1.5,0.2-2.2c-0.3-0.7-0.9-1.3-1.6-1.5c-2-0.9-4-1.5-6.1-2
	c-3.5-0.7-7-1.8-10.3-3.3c-3.6-1.6-6.1-4.9-6.6-8.8c-0.7-3.5,0.2-7.2,2.3-10.1c2.1-2.9,5.3-4.8,8.9-5.3c6.2-1.3,12.7-0.7,18.6,1.6
	c2.1,1,3.1,3.4,2.3,5.6c-0.4,1.1-1.2,2-2.2,2.6c-1.1,0.5-2.3,0.6-3.4,0.1c-3.3-1-6.8-1.4-10.2-1.3c-2-0.1-4,0.5-5.7,1.6
	c-1.2,0.5-1.9,1.8-1.8,3.1c0.1,1.3,1,2.4,2.3,2.7c3.1,1.3,6.4,2.2,9.7,2.8c3.1,0.6,6,1.9,8.6,3.7c3.3,2.7,5,6.8,4.5,11
	c-0.4,4.2-3,7.9-6.8,9.8c-1.9,1-3.9,1.6-6,2c0,0-0.5,0-0.6,0H155.9z M218.4,529.8l-3.8-0.9c-8.9-2.6-15.3-10.5-15.9-19.7
	c-0.6-5.8,0.9-11.6,4.3-16.3c3.9-5.3,10-8.5,16.6-8.9c5.4-0.6,10.9,0.6,15.6,3.5c1.6,1,3,2,3,4.1c0.2,1.6-0.6,3.3-2,4.1
	c-1.4,0.9-3.2,0.8-4.6-0.1c-1.9-1.1-4-1.9-6.2-2.3c-4.9-1.1-10,0.3-13.7,3.8c-4.5,5.5-4.7,13.3-0.5,19.1c2.6,3.1,6.6,4.8,10.7,4.6
	c3.1,0.1,6.1-0.7,8.8-2.2l1.1-0.5c1-0.5,2.2-0.6,3.2-0.3c1.1,0.3,2,1.1,2.5,2.1c1.2,2,0.6,4.6-1.4,5.9c-3,2.1-6.4,3.4-10,3.9
	c0,0-0.6,0-0.7,0L218.4,529.8z M56.2,497.6v-26.7c-0.1-1.7,0.6-3.2,2-4.2c1.3-1,3.1-1.2,4.6-0.6c1.6,0.5,2.8,1.9,3,3.6
	c0.1,0.5,0.1,1.1,0,1.6c0,17.6,0,35.2,0,52.6c0.2,1.6-0.4,3.1-1.6,4.2c-1.2,1-2.8,1.4-4.4,1.1c-2-0.3-3.6-2-3.7-4.1c0-0.7,0-1.3,0-2
	L56.2,497.6z M296.8,497.6v-26.7c0-2.7,2.2-4.9,4.9-4.9c2.7,0,4.9,2.2,4.9,4.9c0,2.2,0,4.5,0,6.6v46.4c0.2,1.5-0.4,3-1.5,4
	c-1.1,1-2.6,1.5-4.1,1.3c-2.4-0.2-4.2-2.2-4.1-4.6c0-2.8,0-5.7,0-8.4V497.6z M-14,489.4c1.7-1.9,3.8-3.5,6.2-4.5
	c2.1-0.9,4.3-1.3,6.6-1.1c2.5,0.4,4.3,2.8,3.9,5.3c-0.1,2.3-2,4.1-4.3,4c-4.7-0.1-9.1,2-12,5.7c-0.5,0.5-0.8,1.3-0.8,2
	c0,7.9,0,15.8,0,23.7c0.1,2.5-1.7,4.6-4.1,4.9c-2.4,0.4-4.7-1-5.4-3.3c-0.1-0.6-0.1-1.2,0-1.8v-34.9c-0.1-1.3,0.3-2.6,1.2-3.7
	c0.9-1,2.1-1.6,3.4-1.7c2.7-0.1,5,2,5.1,4.7C-14.2,489-14.2,489.2-14,489.4z M318.5,506.8c0-6,0-12,0-18c-0.1-2.5,1.8-4.5,4.3-4.7
	c2.3-0.3,4.4,1,5.1,3.2c0.1,0.5,0.1,1.1,0,1.6v35.6c0,2.4-1.7,4.4-4.1,4.7c-2.4,0.4-4.7-1-5.5-3.3c-0.1-0.6-0.1-1.2,0-1.8
	C318.5,518.5,318.5,512.6,318.5,506.8z M124,506.8v-17.9c-0.1-2.1,1.3-4,3.3-4.6c2-0.7,4.2,0,5.5,1.7c0.7,1,1,2.3,0.9,3.5v14.5
	c0,6.6,0,13.2,0,20.1c0.1,1.3-0.3,2.7-1.2,3.7c-0.9,1-2.1,1.6-3.5,1.6c-1.4,0.1-2.7-0.4-3.7-1.3c-1-0.9-1.5-2.3-1.4-3.6V506.8z
	 M129.1,467.1c1.5-0.1,3,0.5,4,1.5c1.1,1.1,1.6,2.5,1.5,4c0,2.3-1.3,4.3-3.4,5.2c-2.1,0.9-4.5,0.4-6.1-1.2c-1.6-1.6-2.1-4-1.2-6.1
	C124.7,468.4,126.8,467.1,129.1,467.1z M323.4,467.1c2.1-0.2,4.2,0.8,5.3,2.6c1.1,1.8,1.1,4.1,0,5.9c-1.1,1.8-3.2,2.8-5.3,2.6
	c-2.1,0.2-4.2-0.8-5.3-2.6c-1.1-1.8-1.1-4.1,0-5.9C319.3,467.9,321.3,466.9,323.4,467.1L323.4,467.1z"/>
</svg>
